PathFileType	4	(X/Y/Z)	/Users/itak/Documents/Research/Walk-IL/dataset/trc/00459_00167.trc
DataRate	CameraRate	NumFrames	NumMarkers	Units	OrigDataRate	OrigDataStartFrame	OrigNumFrames
100.000000	100.000000	4	53	mm	100.000000	444	592
Frame#	Time	RPSI			LPSI			L3			STRN			T10			C7			CLAV			RBAK			LBAK			LSHO			LUPA			LAEL			LAOL			LWTS			LWPS			LFRA			LIFD			LHPS			LHTS			RSHO			RUPA			RAEL			RAOL			RWTS			RWPS			RFRA			RIFD			RHTS			RHPS			RBHD			LFHD			RFHD			LBHD			LHIP			RHIP			RASI			LASI			LKNE			LTHI			LANK			LTIP			LTOE			LMT1			LMT5			LHEE			RKNE			RTHI			RANK			RTIP			RTOE			RMT1			RMT5			RHEE			
		X1	Y1	Z1	X2	Y2	Z2	X3	Y3	Z3	X4	Y4	Z4	X5	Y5	Z5	X6	Y6	Z6	X7	Y7	Z7	X8	Y8	Z8	X9	Y9	Z9	X10	Y10	Z10	X11	Y11	Z11	X12	Y12	Z12	X13	Y13	Z13	X14	Y14	Z14	X15	Y15	Z15	X16	Y16	Z16	X17	Y17	Z17	X18	Y18	Z18	X19	Y19	Z19	X20	Y20	Z20	X21	Y21	Z21	X22	Y22	Z22	X23	Y23	Z23	X24	Y24	Z24	X25	Y25	Z25	X26	Y26	Z26	X27	Y27	Z27	X28	Y28	Z28	X29	Y29	Z29	X30	Y30	Z30	X31	Y31	Z31	X32	Y32	Z32	X33	Y33	Z33	X34	Y34	Z34	X35	Y35	Z35	X36	Y36	Z36	X37	Y37	Z37	X38	Y38	Z38	X39	Y39	Z39	X40	Y40	Z40	X41	Y41	Z41	X42	Y42	Z42	X43	Y43	Z43	X44	Y44	Z44	X45	Y45	Z45	X46	Y46	Z46	X47	Y47	Z47	X48	Y48	Z48	X49	Y49	Z49	X50	Y50	Z50	X51	Y51	Z51	X52	Y52	Z52	X53	Y53	Z53	

445	4.44	196.5375061035156	953.9978637695312	33.47022247314453	338.7349548339844	956.1671142578125	49.05186080932617	258.3153686523438	1046.585571289062	51.4921989440918	254.6818389892578	1261.277221679688	312.4682312011719	271.3084106445312	1169.373413085938	27.08240699768066	269.8817443847656	1440.95556640625	78.60572814941406	265.9609680175781	1372.000244140625	270.0074462890625	175.0796356201172	1322.8291015625	16.77821922302246	369.9073181152344	1386.176635742188	55.78719711303711	440.4149169921875	1415.75439453125	161.0164489746094	540.931640625	1304.6767578125	178.8318634033203	599.0901489257812	1115.962890625	262.5556030273438	545.5225219726562	1065.396362304688	189.5104370117188	552.8553466796875	969.4513549804688	420.2870178222656	614.71630859375	940.2101440429688	391.71435546875	609.8826904296875	1047.705444335938	321.1696472167969	565.9705810546875	824.3980102539062	507.6663513183594	618.8807373046875	876.4793701171875	438.2999267578125	565.466064453125	903.8104858398438	478.0143432617188	105.1360702514648	1429.705322265625	132.4957885742188	28.02854347229004	1372.709228515625	108.0864410400391	-52.27285385131836	1091.778076171875	125.9727783203125	-9.915358543395996	1064.506958007812	79.69981384277344	-10.86334323883057	916.4161987304688	271.9277954101562	-69.82823181152344	886.7615966796875	213.5037384033203	-63.43637847900391	1035.289306640625	142.2279052734375	-20.4771556854248	765.5707397460938	313.1340026855469	-23.59334373474121	825.5890502929688	311.0177307128906	-66.59010314941406	806.6603393554688	250.4365844726562	190.0054931640625	1652.713623046875	169.8847808837891	357.1082153320312	1656.641967773438	292.1975402832031	227.3329925537109	1667.070678710938	301.7626037597656	365.7904357910156	1642.512939453125	140.4242248535156	441.912841796875	860.7996215820312	199.9427795410156	44.84893417358398	855.277587890625	139.6335754394531	98.95484161376953	903.4879760742188	248.5011291503906	353.3689270019531	902.051025390625	286.7169494628906	396.5582580566406	444.0439453125	215.4872741699219	416.9133605957031	597.6930541992188	237.1106109619141	389.2522277832031	34.41131591796875	152.3158111572266	405.9867553710938	295.143310546875	213.2472991943359	290.5314025878906	41.62386322021484	376.4509887695312	271.2215576171875	50.47128295898438	297.7778015136719	385.6831970214844	37.70373916625977	307.6436462402344	329.4266662597656	42.32699966430664	101.772575378418	72.87807464599609	463.5416870117188	202.4691619873047	46.41066741943359	720.9637451171875	185.6090698242188	67.84535217285156	37.24610137939453	182.5974578857422	61.3250732421875	325.5105285644531	211.6806488037109	115.6082458496094	43.93660736083984	397.7429504394531	152.5299224853516	46.73384475708008	333.4922485351562	45.69948196411133	44.58272552490234	316.7671813964844	114.3804779052734	27.25557327270508	117.9114074707031	
446	4.45	196.5515899658203	953.9276733398438	36.92673110961914	338.6249694824219	955.9111938476562	53.19642639160156	257.59423828125	1045.607299804688	54.62895584106445	254.0110321044922	1261.735961914062	314.1813049316406	269.6492004394531	1168.31982421875	29.57793426513672	267.9671325683594	1440.216552734375	79.32413482666016	265.3215942382812	1372.198608398438	271.0305786132812	172.9764404296875	1321.701049804688	18.48222923278809	367.7943725585938	1385.439453125	55.87864303588867	439.4229125976562	1415.354370117188	160.4040985107422	539.3741455078125	1303.33154296875	176.9810028076172	596.5051879882812	1113.951049804688	260.1481018066406	542.2308349609375	1063.955078125	187.5812835693359	549.7503051757812	967.6426391601562	417.9695739746094	611.2637939453125	937.9664916992188	389.1562805175781	606.9664916992188	1045.524169921875	318.6472473144531	561.908447265625	822.3220825195312	505.0768432617188	615.0737915039062	874.1258544921875	435.6322937011719	561.9559326171875	901.790771484375	475.5369567871094	103.5773696899414	1428.8994140625	134.0547485351562	26.35377311706543	1371.612426757812	110.5598297119141	-53.63367080688477	1090.826049804688	130.6019439697266	-11.66045188903809	1063.869384765625	83.97263336181641	-12.24912738800049	913.0633544921875	273.6119689941406	-71.80107116699219	884.7000732421875	215.1691741943359	-64.98221588134766	1034.211303710938	146.2242126464844	-22.19820404052734	761.5590209960938	312.2715148925781	-25.14143180847168	821.6058349609375	311.2639465332031	-68.77817535400391	803.9359130859375	250.8688507080078	188.5075836181641	1652.611450195312	170.6037292480469	356.1087646484375	1656.653076171875	292.2187194824219	226.3570251464844	1666.945556640625	302.3407592773438	364.1588439941406	1642.613037109375	140.3945465087891	441.3360290527344	860.6822509765625	204.2675170898438	44.38252258300781	855.4418334960938	142.0034637451172	97.68500518798828	903.4619140625	251.3987426757812	352.0484008789062	901.8023071289062	290.8352661132812	396.7592163085938	443.8775024414062	214.2833709716797	416.8989868164062	597.144775390625	237.6748199462891	389.2996215820312	34.33159637451172	152.2337951660156	406.3836059570312	295.4847717285156	212.0905303955078	290.6497192382812	41.73131942749023	376.3242797851562	271.3512878417969	50.59075546264648	297.6734313964844	385.71875	37.71337509155273	307.5229797363281	329.5551147460938	42.27099609375	101.6269760131836	72.09006500244141	463.4390563964844	201.6969299316406	45.09421157836914	720.9560546875	188.4974517822266	67.85729217529297	37.27681732177734	182.0098571777344	60.71958541870117	325.3253784179688	210.7555694580078	115.4629745483398	43.55086135864258	397.3457336425781	152.2837371826172	46.75654220581055	333.0883483886719	45.30488586425781	44.33225631713867	316.2945861816406	114.6226806640625	27.44006538391113	117.3824615478516	
447	4.46	196.7176818847656	954.0227661132812	40.22692108154297	338.6426391601562	955.6657104492188	57.23441314697266	257.0845336914062	1044.742065429688	57.65773010253906	253.2733612060547	1262.222290039062	315.8809814453125	268.2314453125	1167.389526367188	32.02765274047852	266.1570739746094	1439.587768554688	80.08802032470703	264.6374816894531	1372.431274414062	272.0852661132812	171.0301208496094	1320.670532226562	20.15238380432129	365.7771911621094	1384.822875976562	56.12326049804688	438.4429931640625	1415.049682617188	159.9922180175781	537.8048706054688	1302.032958984375	175.2382507324219	593.7745361328125	1111.812133789062	257.4286804199219	538.7122192382812	1062.535766601562	185.4406585693359	546.6915893554688	965.539306640625	415.2525634765625	607.7443237304688	935.39208984375	385.9847106933594	603.9568481445312	1043.106567382812	315.6892700195312	558.0599975585938	819.8727416992188	501.9338989257812	611.2600708007812	871.4005737304688	432.2633056640625	558.6349487304688	899.4212036132812	472.5618286132812	102.069580078125	1428.148315429688	135.5722351074219	24.75188827514648	1370.566772460938	112.9611968994141	-54.87175369262695	1089.9658203125	135.1298065185547	-13.25943756103516	1063.328247070312	88.17509460449219	-13.76725101470947	909.7164306640625	275.111083984375	-73.85580444335938	882.7601928710938	216.5925140380859	-66.45068359375	1033.244995117188	150.0987091064453	-24.2729434967041	757.5847778320312	311.0563049316406	-26.96917152404785	817.643798828125	311.219482421875	-71.1795654296875	801.3228759765625	250.9710845947266	186.9576110839844	1652.53466796875	171.2264862060547	355.0302429199219	1656.787963867188	292.1784362792969	225.2933197021484	1666.947509765625	302.8198547363281	362.4730224609375	1642.722412109375	140.3188018798828	440.784423828125	860.5126953125	208.4583892822266	43.95158004760742	855.7860717773438	144.3043670654297	96.37137603759766	903.664306640625	254.1235046386719	350.6789855957031	901.54736328125	294.7904663085938	396.855224609375	443.7138366699219	213.4287567138672	416.82568359375	596.596923828125	238.3713989257812	389.3396301269531	34.26126098632812	152.1620483398438	406.6879577636719	295.7689819335938	211.2208557128906	290.73388671875	41.81695556640625	376.2022399902344	271.4434204101562	50.67662048339844	297.5716552734375	385.7318115234375	37.73347473144531	307.4040832519531	329.6799011230469	42.22983169555664	101.4861755371094	71.17763519287109	463.5441589355469	201.3494262695312	43.73395538330078	721.1768188476562	191.2129669189453	67.76068115234375	37.30437469482422	181.4826202392578	60.00120162963867	325.2708435058594	210.1908874511719	115.2836608886719	43.37835693359375	396.9507446289062	151.9759368896484	46.8878173828125	332.6949157714844	44.84814071655273	44.14554977416992	315.8558959960938	114.7006225585938	27.6475944519043	116.8973388671875	
448	4.47	196.9633483886719	954.25537109375	43.3675651550293	338.7232666015625	955.4490356445312	61.11510467529297	256.7348937988281	1043.989501953125	60.57073593139648	252.4829254150391	1262.72265625	317.568359375	267.0522766113281	1166.583984375	34.40990829467773	264.4601440429688	1439.056640625	80.91011810302734	263.9123840332031	1372.690673828125	273.1810607910156	169.2532958984375	1319.735595703125	21.79286956787109	363.8812255859375	1384.326049804688	56.53903579711914	437.4780883789062	1414.838256835938	159.8146057128906	536.2454833984375	1300.810791015625	173.6669464111328	590.920654296875	1109.562744140625	254.4322357177734	534.9732666015625	1061.174682617188	183.1099548339844	543.6864013671875	963.1332397460938	412.1443481445312	604.1610107421875	932.4842529296875	382.2054443359375	600.8702392578125	1040.462280273438	312.3187561035156	554.4129638671875	817.0374145507812	498.2352294921875	607.4342041015625	868.2966918945312	428.196533203125	555.5032348632812	896.6896362304688	469.0917663574219	100.6238021850586	1427.459106445312	137.0543060302734	23.23366546630859	1369.588500976562	115.2843933105469	-55.98365020751953	1089.207641601562	139.5051116943359	-14.69287586212158	1062.890747070312	92.26610565185547	-15.42420387268066	906.434326171875	276.4469909667969	-75.9627685546875	880.9761352539062	217.7715148925781	-67.82997894287109	1032.401977539062	153.8085174560547	-26.69419097900391	753.7144775390625	309.5319213867188	-29.07089805603027	813.76513671875	310.9117431640625	-73.74925231933594	798.8721313476562	250.7355041503906	185.3587036132812	1652.466552734375	171.7579345703125	353.8702697753906	1657.0498046875	292.0871276855469	224.1401519775391	1667.073852539062	303.203857421875	360.7412719726562	1642.830322265625	140.2114562988281	440.2478637695312	860.314697265625	212.4546661376953	43.5242919921875	856.2581787109375	146.566650390625	95.04492950439453	904.0364379882812	256.701171875	349.3014526367188	901.296875	298.5362854003906	396.8290710449219	443.5538330078125	213.0001373291016	416.6685485839844	596.0697631835938	239.2576293945312	389.3714294433594	34.20587158203125	152.1093444824219	406.8736877441406	295.9845581054688	210.7074890136719	290.7752990722656	41.87122344970703	376.0946960449219	271.4875183105469	50.72323226928711	297.4783630371094	385.717041015625	37.76453399658203	307.2952880859375	329.7918090820312	42.20981979370117	101.361328125	70.17198944091797	463.787109375	201.4150085449219	42.36087036132812	721.5673217773438	193.7813873291016	67.58619689941406	37.30714797973633	181.064697265625	59.21041870117188	325.2994079589844	209.9904937744141	115.1039352416992	43.34640502929688	396.6136779785156	151.6448822021484	47.08319091796875	332.3645324707031	44.36169815063477	43.99377059936523	315.5115051269531	114.6406555175781	27.84506607055664	116.5068359375	
